<svg width="50" height="50" viewBox="0 0 50 50" fill="none" xmlns="http://www.w3.org/2000/svg">
<path d="M49 24.0006H40.553L49.91 3.41457C50.139 2.91257 49.917 2.31957 49.414 2.09057C48.906 1.86057 48.317 2.08557 48.09 2.58757L38.356 24.0006H34.18L37.986 1.16557C38.077 0.620567 37.709 0.105567 37.164 0.0145673C36.616 -0.0794327 36.103 0.291567 36.014 0.836567L32.153 24.0006H1C0.448 24.0006 0 24.4486 0 25.0006V27.0006C0 36.3746 7.626 44.0006 17 44.0006H33C42.374 44.0006 50 36.3746 50 27.0006V25.0006C50 24.4486 49.553 24.0006 49 24.0006ZM48 27.0006C48 35.2716 41.271 42.0006 33 42.0006H17C8.729 42.0006 2 35.2716 2 27.0006V26.0006H48V27.0006Z" fill="#F82462"/>
<path d="M43 48.0005H7C6.448 48.0005 6 48.4475 6 49.0005C6 49.5535 6.448 50.0005 7 50.0005H43C43.553 50.0005 44 49.5535 44 49.0005C44 48.4475 43.553 48.0005 43 48.0005Z" fill="#F82462"/>
<path d="M7 20.0005C7.552 20.0005 8 19.5525 8 19.0005V15.0005C8 14.4485 7.552 14.0005 7 14.0005C6.448 14.0005 6 14.4485 6 15.0005V19.0005C6 19.5525 6.448 20.0005 7 20.0005Z" fill="#F82462"/>
<path d="M15 20.0005C15.552 20.0005 16 19.5525 16 19.0005V11.0005C16 10.4485 15.552 10.0005 15 10.0005C14.448 10.0005 14 10.4485 14 11.0005V19.0005C14 19.5525 14.448 20.0005 15 20.0005Z" fill="#F82462"/>
<path d="M23 20.0005C23.552 20.0005 24 19.5525 24 19.0005V15.0005C24 14.4485 23.552 14.0005 23 14.0005C22.448 14.0005 22 14.4485 22 15.0005V19.0005C22 19.5525 22.448 20.0005 23 20.0005Z" fill="#F82462"/>
</svg>
