<svg width="50" height="50" viewBox="0 0 50 50" fill="none" xmlns="http://www.w3.org/2000/svg">
<path d="M49 8.00006H21.193L1.372 0.07106C1.063 -0.05094 0.714 -0.0149401 0.439 0.17206C0.165 0.35806 0 0.66806 0 1.00006V41.0001C0 41.4091 0.249 41.7761 0.628 41.9291L20.628 49.9291C20.75 49.9781 20.876 50.0001 21 50.0001H49C49.553 50.0001 50 49.5531 50 49.0001V9.00006C50 8.44806 49.553 8.00006 49 8.00006ZM2 2.47706L20 9.67706V47.5221L2 40.3231V2.47706ZM48 48.0001H22V10.0001H48V48.0001Z" fill="#F82462"/>
<path d="M29 18H41C41.553 18 42 17.552 42 17C42 16.448 41.553 16 41 16H29C28.447 16 28 16.448 28 17C28 17.552 28.447 18 29 18Z" fill="#F82462"/>
<path d="M29 26H41C41.553 26 42 25.552 42 25C42 24.448 41.553 24 41 24H29C28.447 24 28 24.448 28 25C28 25.552 28.447 26 29 26Z" fill="#F82462"/>
<path d="M29 34H41C41.553 34 42 33.553 42 33C42 32.447 41.553 32 41 32H29C28.447 32 28 32.447 28 33C28 33.553 28.447 34 29 34Z" fill="#F82462"/>
<path d="M29 42H41C41.553 42 42 41.553 42 41C42 40.447 41.553 40 41 40H29C28.447 40 28 40.447 28 41C28 41.553 28.447 42 29 42Z" fill="#F82462"/>
</svg>
