<svg width="50" height="50" viewBox="0 0 50 50" fill="none" xmlns="http://www.w3.org/2000/svg">
<path d="M25 0C11.215 0 0 11.215 0 25C0 38.785 11.215 50 25 50C38.785 50 50 38.785 50 25C50 11.215 38.785 0 25 0ZM25 48C12.318 48 2 37.683 2 25C2 12.318 12.318 2 25 2C37.683 2 48 12.318 48 25C48 37.683 37.683 48 25 48Z" fill="#F82462"/>
<path d="M38.466 11.612C38.453 11.597 38.448 11.579 38.435 11.565C38.422 11.551 38.402 11.546 38.387 11.533C34.949 8.116 30.218 6 25 6C19.783 6 15.052 8.116 11.614 11.532C11.599 11.545 11.579 11.55 11.565 11.565C11.551 11.58 11.545 11.599 11.532 11.614C8.116 15.052 6 19.783 6 25C6 30.218 8.116 34.949 11.533 38.387C11.546 38.402 11.551 38.421 11.565 38.435C11.579 38.449 11.598 38.454 11.612 38.466C15.05 41.884 19.782 44 25 44C30.219 44 34.951 41.883 38.389 38.465C38.404 38.452 38.421 38.448 38.435 38.435C38.449 38.422 38.453 38.404 38.465 38.389C41.883 34.951 44 30.219 44 25C44 19.782 41.884 15.05 38.466 11.612ZM37.688 36.274L27.414 26H41.949C41.719 29.934 40.152 33.505 37.688 36.274ZM8.051 26H22.586L12.311 36.274C9.847 33.505 8.281 29.934 8.051 26ZM12.312 13.726L22.586 24H8.051C8.281 20.066 9.848 16.495 12.312 13.726ZM26 8.051C29.934 8.281 33.505 9.847 36.274 12.311L26 22.585V8.051ZM24 22.586L13.726 12.312C16.496 9.848 20.067 8.282 24 8.051V22.586ZM24 27.414V41.949C20.066 41.719 16.495 40.152 13.725 37.688L24 27.414ZM26 27.414L36.274 37.688C33.504 40.152 29.933 41.718 26 41.949V27.414ZM27.414 24L37.688 13.725C40.152 16.495 41.718 20.066 41.949 24H27.414Z" fill="#F82462"/>
</svg>
