<svg width="42" height="50" viewBox="0 0 42 50" fill="none" xmlns="http://www.w3.org/2000/svg">
<path d="M41.3139 18.972C40.2889 17.056 38.0459 16 34.9999 16H21.9999V1C21.9999 0.448 21.5519 0 20.9999 0C20.4479 0 19.9999 0.448 19.9999 1V16H6.99988C3.95388 16 1.71088 17.056 0.684883 18.972C-0.341117 20.889 0.0248826 23.34 1.71488 25.875L14.6209 45.234C16.2879 47.734 18.5529 49.112 20.9999 49.112C23.4459 49.112 25.7119 47.734 27.3789 45.234L40.2849 25.875C41.9749 23.34 42.3409 20.889 41.3139 18.972ZM38.6209 24.766L25.7149 44.125C24.4309 46.051 22.7559 47.112 20.9999 47.112C19.2439 47.112 17.5689 46.05 16.2849 44.125L3.37888 24.766C2.13588 22.902 1.79688 21.134 2.44888 19.916C3.09988 18.698 4.75888 18 6.99988 18H34.9999C37.2409 18 38.8989 18.698 39.5519 19.916C40.2029 21.134 39.8639 22.901 38.6209 24.766Z" fill="#F82462"/>
<path d="M13 27C14.1046 27 15 26.1046 15 25C15 23.8954 14.1046 23 13 23C11.8954 23 11 23.8954 11 25C11 26.1046 11.8954 27 13 27Z" fill="#F82462"/>
<path d="M21 27C22.1046 27 23 26.1046 23 25C23 23.8954 22.1046 23 21 23C19.8954 23 19 23.8954 19 25C19 26.1046 19.8954 27 21 27Z" fill="#F82462"/>
<path d="M17 33C18.1046 33 19 32.1046 19 31C19 29.8954 18.1046 29 17 29C15.8954 29 15 29.8954 15 31C15 32.1046 15.8954 33 17 33Z" fill="#F82462"/>
<path d="M29 27C30.1046 27 31 26.1046 31 25C31 23.8954 30.1046 23 29 23C27.8954 23 27 23.8954 27 25C27 26.1046 27.8954 27 29 27Z" fill="#F82462"/>
<path d="M25 33C26.1046 33 27 32.1046 27 31C27 29.8954 26.1046 29 25 29C23.8954 29 23 29.8954 23 31C23 32.1046 23.8954 33 25 33Z" fill="#F82462"/>
<path d="M21 39C22.1046 39 23 38.1046 23 37C23 35.8954 22.1046 35 21 35C19.8954 35 19 35.8954 19 37C19 38.1046 19.8954 39 21 39Z" fill="#F82462"/>
<path d="M9.47691 11.4382C10.4899 11.8162 11.3549 12.0002 12.1209 12.0002C13.7679 12.0002 14.9249 11.1382 15.5589 9.43721C16.4859 6.95021 15.3799 5.10221 12.2709 3.94221C10.4919 3.27821 8.23191 2.86621 6.37491 2.86621C4.17991 2.86621 2.85591 3.43121 2.43991 4.54621C1.46591 7.16221 6.62791 10.3762 9.47691 11.4382ZM6.37591 4.86721C7.98591 4.86721 10.0249 5.24021 11.5729 5.81721C14.3839 6.86521 13.9959 7.90421 13.6849 8.73921C13.3369 9.67021 12.9279 10.0002 12.1209 10.0002C11.6049 10.0002 10.9509 9.85421 10.1759 9.56421C6.95491 8.36321 4.27491 5.91521 4.30491 5.26621C4.38191 5.16321 4.93091 4.86721 6.37591 4.86721Z" fill="#F82462"/>
<path d="M30.1988 12.0002C30.9658 12.0002 31.8298 11.8162 32.8438 11.4382C34.4868 10.8252 36.3608 9.74519 37.7348 8.61919C39.5968 7.09219 40.3188 5.72219 39.8798 4.54619C39.4648 3.43219 38.1408 2.86719 35.9448 2.86719C34.0888 2.86719 31.8298 3.27919 30.0488 3.94219C28.3558 4.57319 27.2828 5.37319 26.7738 6.38519C26.3298 7.26819 26.3258 8.26619 26.7618 9.43619C27.3958 11.1372 28.5528 12.0002 30.1988 12.0002ZM28.5598 7.28519C28.8258 6.75919 29.5808 6.25119 30.7478 5.81619C32.2948 5.23919 34.3348 4.86719 35.9438 4.86719C37.3888 4.86719 37.9368 5.16219 37.9998 5.22219C38.0458 5.91519 35.3648 8.36319 32.1448 9.56419C31.3688 9.85319 30.7148 10.0002 30.1988 10.0002C29.3918 10.0002 28.9818 9.66919 28.6348 8.73719C28.3308 7.92219 28.4348 7.53319 28.5598 7.28519Z" fill="#F82462"/>
</svg>
